<?xml version="1.0" standalone="no"?><svg xmlns="http://www.w3.org/2000/svg" viewBox="0 0 1440 320"><path fill="#123400" fill-opacity="1" d="M0,64L34.3,53.3C68.6,43,137,21,206,37.3C274.3,53,343,107,411,122.7C480,139,549,117,617,96C685.7,75,754,53,823,58.7C891.4,64,960,96,1029,117.3C1097.1,139,1166,149,1234,144C1302.9,139,1371,117,1406,106.7L1440,96L1440,320L1405.7,320C1371.4,320,1303,320,1234,320C1165.7,320,1097,320,1029,320C960,320,891,320,823,320C754.3,320,686,320,617,320C548.6,320,480,320,411,320C342.9,320,274,320,206,320C137.1,320,69,320,34,320L0,320Z"></path></svg>