<svg width="36" height="33" viewBox="0 0 36 33" fill="none" xmlns="http://www.w3.org/2000/svg">
<path d="M14.5329 19.2742C13.6978 18.5042 13.1895 17.4577 13.1895 16.2839C13.1895 13.9321 15.2402 12.0364 17.7848 12.0364C19.044 12.0364 20.203 12.5073 21.0236 13.2774" stroke="#17181F" stroke-width="1.5" stroke-linecap="round" stroke-linejoin="round"/>
<path d="M22.295 17.0366C21.9581 18.7672 20.4825 20.133 18.6104 20.4469" stroke="#17181F" stroke-width="1.5" stroke-linecap="round" stroke-linejoin="round"/>
<path d="M10.0221 23.4405C7.7172 21.7689 5.7652 19.3272 4.35059 16.2832C5.77973 13.2257 7.7448 10.7706 10.0643 9.0856C12.3692 7.40057 15.0285 6.48561 17.7851 6.48561C20.5577 6.48561 23.2156 7.41399 25.535 9.11109" stroke="#17181F" stroke-width="1.5" stroke-linecap="round" stroke-linejoin="round"/>
<path d="M28.6022 12.0619C29.6014 13.2881 30.4801 14.7035 31.2194 16.2825C28.3625 22.3961 23.3141 26.0787 17.7849 26.0787C16.5314 26.0787 15.2955 25.8909 14.1074 25.5247" stroke="#17181F" stroke-width="1.5" stroke-linecap="round" stroke-linejoin="round"/>
<path d="M29.2409 5.70119L6.33105 26.8633" stroke="#17181F" stroke-width="1.5" stroke-linecap="round" stroke-linejoin="round"/>
</svg>
