<svg width="20" height="16" viewBox="0 0 20 16" fill="none" xmlns="http://www.w3.org/2000/svg">
<path d="M17.1735 11.72L16.2202 10.9086C17.2641 10.1052 18.0842 9.11126 18.6202 8.00001C17.2669 5.10287 13.5334 2.85715 10 2.85715C9.09071 2.86744 8.18966 3.00646 7.33326 3.26858L6.2999 2.37715C7.47149 1.95277 8.72817 1.72764 10 1.71429C12.1731 1.78434 14.2745 2.39861 16.0447 3.4812C17.8149 4.56379 19.1762 6.06724 19.9603 7.80572C20.0132 7.93127 20.0132 8.06875 19.9603 8.19429C19.3681 9.54116 18.4133 10.7492 17.1735 11.72Z" fill="#6C72CB"/>
<path d="M12.6665 7.84572C12.6201 7.29813 12.3454 6.78314 11.8924 6.39491C11.4395 6.00669 10.8386 5.77118 10.1998 5.73144L8.99307 4.69144C9.66925 4.53884 10.3803 4.54082 11.0553 4.69719C11.7303 4.85356 12.3457 5.15885 12.8401 5.58264C13.3345 6.00642 13.6907 6.53388 13.8732 7.11244C14.0556 7.691 14.0579 8.30045 13.8799 8.88001L12.6665 7.84572Z" fill="#6C72CB"/>
<path d="M0.0401058 7.80571C0.804575 6.09897 2.13478 4.62116 3.86688 3.55429L0.666792 0.805714L1.60682 0L19.334 15.1943L18.394 16L14.9939 13.0857C13.4779 13.848 11.7577 14.2614 10.0004 14.2857C7.82734 14.2157 5.72586 13.6014 3.95569 12.5188C2.18551 11.4362 0.824236 9.93277 0.0401058 8.19429C-0.0128498 8.06874 -0.0128498 7.93126 0.0401058 7.80571ZM7.33365 8C7.33645 8.40006 7.46172 8.79248 7.69692 9.13804C7.93212 9.4836 8.26902 9.77019 8.67394 9.96918C9.07887 10.1682 9.53764 10.2726 10.0044 10.272C10.4711 10.2714 10.9295 10.1658 11.3338 9.96572L7.70699 6.85714C7.46731 7.20328 7.33852 7.59752 7.33365 8ZM10.0004 13.1429C11.3991 13.1219 12.7712 12.8122 14.0005 12.24L12.3071 10.7886C11.5369 11.2467 10.6034 11.4583 9.66962 11.3866C8.73587 11.3148 7.86117 10.9642 7.19826 10.396C6.53535 9.82785 6.12633 9.07813 6.04263 8.27779C5.95893 7.47745 6.20585 6.67734 6.7403 6.01714L4.82691 4.37714C3.29714 5.27713 2.10086 6.53453 1.38014 8C2.73352 10.8971 6.46696 13.1429 10.0004 13.1429Z" fill="#6C72CB"/>
</svg>
