<svg width="16" height="18" viewBox="0 0 16 18" fill="none" xmlns="http://www.w3.org/2000/svg">
<path d="M7.60372 17.5714C9.00319 17.5714 10.1377 16.4369 10.1377 15.0375V12.0953C10.1377 10.808 11.1812 9.76448 12.4685 9.76448H13.1227C13.8481 9.76448 14.4735 9.25462 14.6197 8.54415C14.8148 7.59611 14.0906 6.70781 13.1227 6.70781H12.0847C11.0094 6.70781 10.1377 5.83612 10.1377 4.76084C10.1377 3.8788 10.5325 3.27489 12.5661 3.27489H13.7349C14.5125 3.27489 15.1429 2.64451 15.1429 1.8669C15.1429 1.12566 14.5683 0.509384 13.8277 0.477927C13.0091 0.443158 12.1887 0.426742 11.368 0.428731C7.6282 0.428731 5.06057 1.84991 5.06057 4.45889V4.6004C5.06057 5.76114 4.11961 6.7021 2.95887 6.7021H2.38551C1.54144 6.7021 0.857178 7.38636 0.857178 8.23043C0.857178 9.07451 1.54144 9.75877 2.38551 9.75877H2.96346C4.12673 9.75877 5.06975 10.7018 5.06975 11.8651V15.0375C5.06975 16.4369 6.20425 17.5714 7.60372 17.5714Z" fill="#054788"/>
</svg>
