<svg width="18" height="18" viewBox="0 0 18 18" fill="none" xmlns="http://www.w3.org/2000/svg">
<path d="M17.5716 9C17.5716 8.07736 16.7209 7.44095 15.7983 7.44095H10.8544C9.94012 7.44095 9.19895 8.18213 9.19895 9.09642C9.19895 10.0107 9.94012 10.7519 10.8544 10.7519H11.3089C12.647 10.7519 13.6387 12.0836 12.6199 12.9512C11.7707 13.6744 10.5818 14.0647 9.19895 14.0647C8.518 14.0659 7.84352 13.9356 7.2142 13.6814C6.58487 13.4272 6.01309 13.0541 5.53163 12.5835C5.05017 12.1129 4.66852 11.554 4.40856 10.9389C4.1486 10.3238 4.01544 9.66455 4.01674 8.99904C4.01557 8.33361 4.14882 7.6745 4.40884 7.0595C4.66886 6.4445 5.05053 5.88572 5.53198 5.41519C6.01342 4.94466 6.58516 4.57164 7.21442 4.31751C7.84368 4.06339 8.51808 3.93316 9.19895 3.9343C9.85617 3.9343 10.4798 4.05557 11.0515 4.2746C11.9014 4.60016 12.9177 4.58665 13.5687 3.95068C14.3269 3.20995 14.2884 1.95926 13.3527 1.46123C12.1199 0.805103 10.7146 0.428606 9.19895 0.428606C8.04628 0.425313 6.90433 0.644771 5.83876 1.07436C4.77319 1.50394 3.80503 2.13518 2.98997 2.93177C2.17491 3.72835 1.52903 4.67456 1.08948 5.71598C0.64993 6.75739 0.425382 7.87346 0.428751 9C0.425252 10.1266 0.649711 11.2427 1.08921 12.2842C1.52872 13.3256 2.17459 14.2719 2.98968 15.0685C3.80476 15.8651 4.77297 16.4964 5.8386 16.9259C6.90423 17.3554 8.04625 17.5748 9.19895 17.5714C13.584 17.5714 17.5716 14.4543 17.5716 9Z" fill="#FB4545"/>
</svg>
